<?xml version="1.0" standalone="no"?>
<!DOCTYPE svg PUBLIC "-//W3C//DTD SVG 20010904//EN"
 "http://www.w3.org/TR/2001/REC-SVG-20010904/DTD/svg10.dtd">
<svg version="1.0" xmlns="http://www.w3.org/2000/svg"
 width="1024.000000pt" height="1024.000000pt" viewBox="0 0 1024.000000 1024.000000"
 preserveAspectRatio="xMidYMid meet">
<metadata>
Created by potrace 1.14, written by Peter Selinger 2001-2017
</metadata>
<g transform="translate(0.000000,1024.000000) scale(0.100000,-0.100000)"
fill="#000000" stroke="none">
<path d="M5107 7533 c-3 -4 -14 -25 -26 -45 -27 -48 -30 -54 -206 -358 -81
-140 -156 -271 -167 -290 -11 -19 -24 -39 -28 -45 -4 -5 -21 -35 -37 -65 -17
-30 -88 -154 -158 -275 -136 -235 -154 -265 -185 -320 -43 -76 -63 -110 -225
-390 -92 -159 -176 -305 -186 -322 -27 -47 -47 -81 -129 -223 -40 -69 -83
-143 -95 -165 -20 -34 -86 -149 -145 -250 -78 -134 -208 -360 -233 -405 -16
-30 -33 -59 -37 -65 -4 -5 -17 -26 -28 -45 -11 -19 -43 -75 -72 -125 -29 -49
-62 -108 -75 -130 -12 -22 -55 -96 -95 -165 -40 -69 -81 -140 -91 -157 -11
-18 -27 -48 -38 -65 -33 -58 -393 -682 -412 -715 -11 -18 -27 -48 -38 -65 -10
-18 -34 -60 -54 -93 -19 -33 -33 -63 -30 -67 2 -5 1264 -8 2803 -8 1539 0
2801 3 2803 8 3 4 -11 34 -30 67 -20 33 -44 75 -54 93 -11 17 -27 47 -38 65
-19 33 -379 657 -412 715 -11 17 -27 47 -38 65 -10 17 -51 88 -91 157 -40 69
-83 143 -95 165 -13 22 -46 81 -75 130 -29 50 -61 106 -72 125 -11 19 -24 40
-28 45 -4 6 -21 35 -37 65 -25 45 -155 271 -233 405 -59 101 -125 216 -145
250 -12 22 -55 96 -95 165 -82 142 -102 176 -129 223 -10 17 -94 163 -186 322
-162 280 -182 314 -225 390 -31 55 -49 85 -185 320 -70 121 -141 245 -158 275
-16 30 -33 60 -37 65 -4 6 -17 26 -28 45 -11 19 -86 150 -167 290 -181 314
-177 305 -207 360 -26 44 -42 58 -51 43z"/>
</g>
</svg>
